<svg width="60" height="69" viewBox="0 0 60 69" fill="none" xmlns="http://www.w3.org/2000/svg">
<path d="M0 9.61832C0 6.32991 2.66579 3.66412 5.9542 3.66412H54.0458C57.3342 3.66412 60 6.32991 60 9.61832V60.0984C60 62.9629 57.9658 65.4169 55.1387 65.8779C48.9017 66.8948 37.9417 68.4733 30 68.4733C22.0583 68.4733 11.0983 66.8948 4.86126 65.8779C2.03415 65.4169 0 62.9629 0 60.0984V9.61832Z" fill="#9FACB7"/>
<path d="M0 5.9542C0 2.66578 2.66579 0 5.9542 0H54.0458C57.3342 0 60 2.66579 60 5.9542V55.4198C60 58.7083 57.3342 61.374 54.0458 61.374H5.9542C2.66579 61.374 0 58.7083 0 55.4198V5.9542Z" fill="#FEFFFF"/>
<path d="M52.6718 28.3969C52.6718 43.5115 32.2901 56.1069 30.229 56.1069C28.1679 56.1069 7.78626 43.7405 7.78626 28.3969C7.78626 16.0022 17.8342 5.9542 30.229 5.9542C42.6238 5.9542 52.6718 16.0022 52.6718 28.3969Z" fill="#F86200"/>
<path fill-rule="evenodd" clip-rule="evenodd" d="M17.8626 29.061C16.4441 27.5802 15.5725 25.5713 15.5725 23.3588C15.5725 18.8056 19.2636 15.1145 23.8168 15.1145C26.4067 15.1145 28.7176 16.3087 30.229 18.1765C31.7404 16.3087 34.0514 15.1145 36.6412 15.1145C41.1944 15.1145 44.8855 18.8056 44.8855 23.3588C44.8855 25.8005 43.824 27.9942 42.1374 29.5038V37.5573C42.1374 38.3161 41.5222 38.9313 40.7634 38.9313H35.6854L30.6625 44.1917C30.3017 44.5696 29.6983 44.5696 29.3375 44.1917L24.3146 38.9313H19.2366C18.4778 38.9313 17.8626 38.3161 17.8626 37.5573V29.061ZM17.8626 22.7908C17.8626 24.2124 18.4948 25.5053 19.5276 26.4679C22.1175 29.5114 30.229 36.6412 30.229 36.6412C30.229 36.6412 38.4034 29.6752 41.0367 26.3663C42.0064 25.4153 42.5954 24.163 42.5954 22.7908C42.5954 19.8161 39.8271 17.4046 36.4122 17.4046C34.0232 17.4046 31.5184 18.5848 30.229 20.3124C28.9396 18.5848 26.4348 17.4046 24.0458 17.4046C20.6309 17.4046 17.8626 19.8161 17.8626 22.7908Z" fill="white"/>
</svg>
